<?xml version="1.0" encoding="UTF-8" standalone="no"?>
<svg
   xmlns:dc="http://purl.org/dc/elements/1.1/"
   xmlns:cc="http://creativecommons.org/ns#"
   xmlns:rdf="http://www.w3.org/1999/02/22-rdf-syntax-ns#"
   xmlns:svg="http://www.w3.org/2000/svg"
   xmlns="http://www.w3.org/2000/svg"
   id="svg8"
   version="1.1"
   viewBox="0 0 75 75"
   height="75mm"
   width="75mm">
  <defs
     id="defs2" />
  <metadata
     id="metadata5">
    <rdf:RDF>
      <cc:Work
         rdf:about="">
        <dc:format>image/svg+xml</dc:format>
        <dc:type
           rdf:resource="http://purl.org/dc/dcmitype/StillImage" />
        <dc:title></dc:title>
      </cc:Work>
    </rdf:RDF>
  </metadata>
  <g
     transform="translate(-105.89155,-151.47396)"
     id="layer1">
    <path
       id="path826"
       d="m 139.73596,224.45335 c -8.36383,-1.55027 -13.2349,-8.59918 -15.1436,-21.91424 -1.49173,-10.40629 -1.07027,-24.12762 1.00424,-32.69513 2.59441,-10.71459 8.00872,-16.1637 16.53778,-16.64404 10.92976,-0.61556 17.80294,7.01892 20.0488,22.26948 1.1914,8.09022 1.19481,18.59248 0.009,26.88761 -1.1973,8.37367 -3.72592,14.32588 -7.64004,17.98416 -2.57678,2.40835 -5.01449,3.55893 -8.75677,4.13311 -2.71156,0.41604 -3.72044,0.41255 -6.05918,-0.021 z m 6.49477,-4.26659 c 3.44312,-1.68845 5.73772,-6.16724 6.86738,-13.40435 0.40317,-2.58281 0.83182,-7.86517 1.00959,-12.44116 l 0.12014,-3.09271 H 143.3469 132.46596 l 0.17087,5.23867 c 0.33933,10.40407 1.23039,15.87608 3.23136,19.84398 0.91509,1.81463 2.63286,3.52794 4.05943,4.04891 1.47649,0.5392 5.0317,0.43015 6.30311,-0.19334 z m 8.01972,-34.30311 c -9.6e-4,-0.45129 -0.11345,-2.93403 -0.24931,-5.51722 -0.60784,-11.55741 -2.20993,-17.62378 -5.53149,-20.94535 -1.83313,-1.83312 -3.25062,-2.34167 -6.18117,-2.2176 -1.79737,0.0761 -2.26022,0.19494 -3.32555,0.85379 -4.16515,2.57593 -5.85605,8.80262 -6.32239,23.28199 l -0.17278,5.36489 h 10.89249 10.89249 l -0.002,-0.8205 z"
       style="fill:#000000;fill-opacity:0.94472363;stroke-width:0.25246578" />
  </g>
</svg>
